<svg width="35" height="37" viewBox="0 0 35 37" fill="none" xmlns="http://www.w3.org/2000/svg">
<g style="mix-blend-mode:darken" filter="url(#filter0_d_101_9)">
<path d="M18.3185 24.7294C17.1238 24.5469 14.7448 21.4967 13.9066 20.4721C12.7985 19.1177 11.547 18.0419 10.5267 16.6562C9.49279 15.2521 6.60797 12.1159 6.26954 10.2544C5.75859 7.44407 5.92874 8.1813 7.17256 6.28091C8.30141 4.55619 14.0485 6.27645 15.274 7.13238C16.1002 7.70946 16.819 9.02085 17.4929 9.84447C19.5534 12.3631 17.2887 10.1248 18.4217 8.39381C19.791 6.30172 20.7166 2.21844 23.427 2.02356C27.2758 1.74684 29 3.90736 29 8.55149C29 11.4046 25.7076 14.603 24.5881 17.0662C22.9912 20.5795 20.7606 23.777 18.7829 27" stroke="#AB8B7A" stroke-width="3" stroke-linecap="round"/>
</g>
<path d="M14.0771 11.6306C11.3749 11.9703 18.8679 19.3947 15.7887 15.9337C13.3916 13.2395 10.9663 9.92619 8.99001 6.94505C8.36414 6.00093 10.5222 8.78248 10.654 9.90939C10.6939 10.2503 10.0689 10.591 10.2737 10.8656C11.6546 12.7172 16.0919 17.5402 12.3656 13.3519C11.4864 12.3637 7.88034 7.46285 8.94247 7.99691C12.6121 9.84209 8.2171 8.73759 8.51458 9.09659C10.304 11.2561 13.8957 19.1712 9.98841 12.4912C7.7318 8.6333 12.0459 16.2772 12.7459 16.7465C13.6215 17.3335 11.3552 15.1375 10.8442 14.2125C10.4694 13.534 9.02266 10.9924 10.2737 12.9694C11.843 15.4494 15.0866 20.8907 12.5557 15.0731C12.0256 13.8546 17.4781 20.726 17.5002 20.7149C18.5196 20.2023 19.8158 13.4152 20.1151 12.0609C20.3874 10.8284 21.0258 9.32074 21.5889 8.18816C22.1947 6.9698 21.8108 9.81377 21.3512 9.81377C20.6603 9.81377 20.7743 7.03714 21.1135 6.65818C22.3316 5.29703 23.4171 6.63895 23.4906 4.93695C23.5364 3.87864 24.508 3.02447 25.535 3.02447C25.7972 3.02447 24.7533 2.99776 24.5366 3.21572C24.2902 3.46349 25.1149 4.88424 25.1547 5.22382C25.4172 7.4684 24.0724 9.42105 23.3005 11.4394C23.0521 12.0888 21.2575 15.0629 21.1135 14.6906C20.427 12.9152 22.2886 8.65782 23.0628 6.94505C23.8526 5.19749 23.5541 7.23547 25.2022 7.32755C28.2148 7.49586 24.6762 12.9145 23.0628 14.2125C21.8515 15.1869 19.5696 19.2627 19.2593 20.6671C18.7327 23.0504 19.8901 17.3402 20.0675 16.7943C20.8632 14.3467 22.3356 11.6072 22.6349 9.04878C22.7752 7.84935 28.256 3.49908 28.4351 3.88509C29.0943 5.3056 24.5275 10.7764 23.9185 12.4912C22.506 16.4686 18.7956 28.0355 16.5969 18.0852C16.0714 15.7072 13.9583 13.309 12.7935 11.2003C11.7297 9.27477 14.0362 10.1279 14.9329 10.5788C17.1455 11.6913 15.4124 11.0319 14.7427 9.90939C14.0919 8.8186 17.6351 13.8638 18.5462 14.8818C21.2723 17.928 17.1777 17.3306 15.3608 15.5034C14.1957 14.3317 10.172 10.5303 10.7016 8.66628C11.317 6.50014 17.0421 10.77 14.9329 10.77C13.0084 10.77 9.54382 7.90775 12.3656 12.8737C13.532 14.9266 15.3377 16.5444 16.6444 18.5155" stroke="#AB8B7A" stroke-width="3" stroke-linecap="round"/>
<defs>
<filter id="filter0_d_101_9" x="0.499939" y="0.500488" width="34.0001" height="35.9998" filterUnits="userSpaceOnUse" color-interpolation-filters="sRGB">
<feFlood flood-opacity="0" result="BackgroundImageFix"/>
<feColorMatrix in="SourceAlpha" type="matrix" values="0 0 0 0 0 0 0 0 0 0 0 0 0 0 0 0 0 0 127 0" result="hardAlpha"/>
<feOffset dy="4"/>
<feGaussianBlur stdDeviation="2"/>
<feComposite in2="hardAlpha" operator="out"/>
<feColorMatrix type="matrix" values="0 0 0 0 0 0 0 0 0 0 0 0 0 0 0 0 0 0 0.25 0"/>
<feBlend mode="normal" in2="BackgroundImageFix" result="effect1_dropShadow_101_9"/>
<feBlend mode="normal" in="SourceGraphic" in2="effect1_dropShadow_101_9" result="shape"/>
</filter>
</defs>
</svg>
